<?xml version="1.0" encoding="UTF-8" standalone="no"?>
<!-- Created with Inkscape (http://www.inkscape.org/) -->

<svg
   width="210mm"
   height="297mm"
   viewBox="0 0 210 297"
   version="1.1"
   id="svg5"
   inkscape:version="1.2.1 (9c6d41e410, 2022-07-14)"
   sodipodi:docname="logo.svg"
   xmlns:inkscape="http://www.inkscape.org/namespaces/inkscape"
   xmlns:sodipodi="http://sodipodi.sourceforge.net/DTD/sodipodi-0.dtd"
   xmlns="http://www.w3.org/2000/svg"
   xmlns:svg="http://www.w3.org/2000/svg">
  <sodipodi:namedview
     id="namedview7"
     pagecolor="#ffffff"
     bordercolor="#666666"
     borderopacity="1.0"
     inkscape:showpageshadow="2"
     inkscape:pageopacity="0.0"
     inkscape:pagecheckerboard="0"
     inkscape:deskcolor="#d1d1d1"
     inkscape:document-units="px"
     showgrid="false"
     showborder="false"
     inkscape:zoom="1.4142136"
     inkscape:cx="378.65567"
     inkscape:cy="547.30063"
     inkscape:window-width="3840"
     inkscape:window-height="2054"
     inkscape:window-x="-11"
     inkscape:window-y="-11"
     inkscape:window-maximized="1"
     inkscape:current-layer="path7398" />
  <defs
     id="defs2" />
  <g
     inkscape:label="Warstwa 1"
     inkscape:groupmode="layer"
     id="layer1">
    <g
       id="path7398"
       style="opacity:0.508929">
      <path
         id="path340"
         style="color:#000000;fill:#00ffff;stroke-width:37.2072;stroke-dasharray:none"
         d="M 104.99745,80.403509 A 172.20443,172.20443 0 0 0 35.26811,95.283482 172.20443,172.20443 0 0 0 43.483488,140.20247 H 166.50997 A 172.20443,172.20443 0 0 0 174.7319,95.164304 172.20443,172.20443 0 0 0 104.99745,80.403509 Z M 55.833809,169.1427 a 172.20443,172.20443 0 0 0 49.163641,56.61671 172.20443,172.20443 0 0 0 49.16221,-56.61671 z" />
      <path
         id="path24945"
         style="color:#000000;fill:#00ffff;stroke-width:37.2072;stroke-dasharray:none"
         d="m 104.98801,73.894429 c -24.934829,0.04264 -49.584638,5.299434 -72.365101,15.438808 h -0.0029 l -4.061543,1.812398 0.205657,4.444518 c 0.716789,15.300607 3.388804,30.276757 7.839672,44.612317 h 3.901671 c -4.565683,-14.37132 -7.301763,-29.4124 -8.022073,-44.78818 l -0.09084,-1.906142 1.741181,-0.774666 C 56.438972,82.805619 80.575161,77.655822 104.99019,77.613696 h 0.003 0.003 0.003 c 5.06622,0 10.12076,0.221444 15.15031,0.65912 9.47714,0.824708 18.86438,2.421335 28.06746,4.767899 9.44202,2.407493 18.69196,5.604412 27.64742,9.572133 l 1.74408,0.77394 -0.088,1.906142 c -0.71159,15.4175 -3.45012,30.50041 -8.02788,44.90954 h 3.90022 c 4.46327,-14.3752 7.13809,-29.39485 7.8462,-44.738764 l 0.20275,-4.449604 -4.07316,-1.801497 c -9.14583,-4.05209 -18.58893,-7.319836 -28.2317,-9.778518 -9.39874,-2.396456 -18.98471,-4.024487 -28.66336,-4.866731 -5.13614,-0.446952 -10.29985,-0.672927 -15.4744,-0.672927 h -0.003 z m 0.008,9.300348 c -22.522456,0.03962 -44.746251,4.701795 -65.465228,13.436014 l -1.222316,0.513782 0.08793,1.32405 c 0.955792,14.340917 3.717745,28.348647 8.128902,41.733847 h 4.006314 C 46.132689,127.18478 43.322774,113.5551 42.274981,99.583393 62.185833,91.37922 83.449184,86.951589 104.99892,86.913317 h 0.009 c 21.54208,0.0038 42.80316,4.39667 62.72103,12.563246 -1.04166,14.008797 -3.85454,27.674727 -8.2648,40.725907 h 4.00705 c 4.42245,-13.42028 7.18676,-27.46657 8.13542,-41.846487 l 0.088,-1.32696 -1.22522,-0.513777 C 149.74249,87.820051 127.5209,83.198759 105.00691,83.194777 h -0.009 z M 48.451231,169.1427 c 12.429268,24.09772 30.328438,45.35077 52.680169,61.85406 l 3.86752,2.85667 3.86678,-2.85667 c 22.3515,-16.50339 40.25043,-37.75665 52.67943,-61.85406 h -4.20035 c -12.127,22.89211 -29.32937,43.0908 -50.68753,58.86077 l -1.65833,1.22449 -1.65907,-1.22449 C 81.98194,212.23396 64.779446,192.03513 52.652302,169.1427 Z m 10.731953,0 c 11.062355,19.99351 26.170538,37.76766 44.678436,52.05737 l 1.1373,0.87859 1.13728,-0.87859 c 18.50813,-14.29012 33.61597,-32.06434 44.67771,-52.05737 h -4.33551 c -10.4726,18.37202 -24.47986,34.76222 -41.47948,48.13536 C 87.999066,203.90495 73.990536,187.51513 63.517241,169.1427 Z" />
      <text
         xml:space="preserve"
         style="font-style:normal;font-variant:normal;font-weight:normal;font-stretch:normal;font-size:27.2285px;line-height:1.25;font-family:'Bauhaus 93';-inkscape-font-specification:'Bauhaus 93, Normal';font-variant-ligatures:normal;font-variant-caps:normal;font-variant-numeric:normal;font-variant-east-asian:normal;fill:#1a1a1a;fill-opacity:1;stroke:#000000;stroke-width:0.680714"
         x="15.351317"
         y="162.73296"
         id="text10457"><tspan
           sodipodi:role="line"
           id="tspan10455"
           style="font-style:normal;font-variant:normal;font-weight:normal;font-stretch:normal;font-size:27.2285px;font-family:'Bauhaus 93';-inkscape-font-specification:'Bauhaus 93, Normal';font-variant-ligatures:normal;font-variant-caps:normal;font-variant-numeric:normal;font-variant-east-asian:normal;fill:#1a1a1a;stroke:#000000;stroke-width:0.680714"
           x="15.351317"
           y="162.73296">TWOJ SOMSIAD</tspan></text>
      <path
         sodipodi:type="star"
         style="opacity:0.514881;fill:#ff5555;stroke:none;stroke-width:0.264583;stroke-dasharray:none"
         id="path25001"
         inkscape:flatsided="false"
         sodipodi:sides="3"
         sodipodi:cx="51.636471"
         sodipodi:cy="186.5274"
         sodipodi:r1="64.023972"
         sodipodi:r2="32.011986"
         sodipodi:arg1="0.51987101"
         sodipodi:arg2="1.5670686"
         inkscape:rounded="0"
         inkscape:randomized="0"
         d="m 107.2018,218.33248 -55.445998,0.20669 -55.4459989,0.20669 27.5440019,-48.12099 27.544,-48.12099 27.902,47.9143 z"
         inkscape:transform-center-x="-0.17849212"
         inkscape:transform-center-y="-1.7390321"
         transform="matrix(1.4957288,0,0,0.1120862,27.587354,115.68407)" />
      <path
         sodipodi:type="star"
         style="opacity:0.514881;fill:#ff5555;stroke:none;stroke-width:0.264583;stroke-dasharray:none"
         id="path25003"
         inkscape:flatsided="false"
         sodipodi:sides="3"
         sodipodi:cx="51.636471"
         sodipodi:cy="186.5274"
         sodipodi:r1="64.023972"
         sodipodi:r2="32.011986"
         sodipodi:arg1="0.51987101"
         sodipodi:arg2="1.5670686"
         inkscape:rounded="0"
         inkscape:randomized="0"
         d="m 107.2018,218.33248 -55.445998,0.20669 -55.4459989,0.20669 27.5440019,-48.12099 27.544,-48.12099 27.902,47.9143 z"
         inkscape:transform-center-x="-0.17849212"
         inkscape:transform-center-y="1.7390417"
         transform="matrix(1.4957288,0,0,-0.1120862,27.587354,193.66109)" />
      <g
         id="path25005"
         inkscape:transform-center-x="-0.17849212"
         inkscape:transform-center-y="-1.7390306"
         style="opacity:0.514881"
         transform="matrix(1.4957288,0,0,0.1120862,27.587354,115.68407)">
        <path
           style="color:#000000;fill:#00ff00;stroke-width:18.1742"
           d="M 51.397974,122.50577 23.85404,170.6258 -3.6903798,218.74583 51.755561,218.53836 107.20199,218.33089 79.299981,170.41833 Z M -3.6903798,476.94202 23.85404,525.06205 51.397974,573.18208 79.299981,525.26952 107.20199,477.35696 51.755561,477.14949 Z"
           id="path26464" />
        <path
           style="color:#000000;fill:#00ff00"
           d="m 51.330078,104.33203 -7.818359,13.66016 -27.544922,48.11914 -35.363281,61.78125 71.185546,-0.26758 71.185548,-0.26563 -35.822266,-61.51367 z m 0.136719,36.34766 19.980469,34.3125 19.980468,34.31054 -39.707031,0.14844 -39.705078,0.14844 19.724609,-34.45899 z m -70.863281,327.11718 7.820312,13.66016 27.542969,48.11914 35.363281,61.7793 35.822266,-61.51367 35.822266,-61.51368 -71.185548,-0.26562 z m 31.412109,18.29102 39.705078,0.14844 39.708984,0.14844 -19.982421,34.3125 -19.980469,34.31054 -19.726563,-34.46094 z"
           id="path26466" />
      </g>
    </g>
  </g>
</svg>
