<?xml version="1.0" encoding="UTF-8" standalone="no"?>
<!-- Created with Inkscape (http://www.inkscape.org/) -->

<svg
   width="210mm"
   height="297mm"
   viewBox="0 0 210 297"
   version="1.1"
   id="svg5"
   inkscape:version="1.2.1 (9c6d41e410, 2022-07-14)"
   sodipodi:docname="rysunek.svg"
   xmlns:inkscape="http://www.inkscape.org/namespaces/inkscape"
   xmlns:sodipodi="http://sodipodi.sourceforge.net/DTD/sodipodi-0.dtd"
   xmlns="http://www.w3.org/2000/svg"
   xmlns:svg="http://www.w3.org/2000/svg">
  <sodipodi:namedview
     id="namedview7"
     pagecolor="#ffffff"
     bordercolor="#666666"
     borderopacity="1.0"
     inkscape:showpageshadow="2"
     inkscape:pageopacity="0.0"
     inkscape:pagecheckerboard="0"
     inkscape:deskcolor="#d1d1d1"
     inkscape:document-units="px"
     showgrid="false"
     showborder="false"
     inkscape:zoom="1.4142136"
     inkscape:cx="378.65567"
     inkscape:cy="434.16355"
     inkscape:window-width="3840"
     inkscape:window-height="2054"
     inkscape:window-x="-11"
     inkscape:window-y="-11"
     inkscape:window-maximized="1"
     inkscape:current-layer="path7398" />
  <defs
     id="defs2" />
  <g
     inkscape:label="Warstwa 1"
     inkscape:groupmode="layer"
     id="layer1">
    <g
       id="path7398"
       style="opacity:0.508929">
      <path
         id="path340"
         style="color:#000000;fill:#00ffff;stroke-width:26.4583334;stroke-dasharray:none"
         d="M 102.78959 57.00789 A 122.45592 122.45592 0 0 0 53.204505 67.589156 A 122.45592 122.45592 0 0 0 59.046525 99.531393 L 146.53162 99.531393 A 122.45592 122.45592 0 0 0 152.3783 67.504407 A 122.45592 122.45592 0 0 0 102.78959 57.00789 z M 67.828935 120.11102 A 122.45592 122.45592 0 0 0 102.78959 160.37161 A 122.45592 122.45592 0 0 0 137.74922 120.11102 L 67.828935 120.11102 z " />
      <path
         id="path24945"
         style="color:#000000;fill:#00ffff;stroke-width:26.4583;stroke-dasharray:none"
         d="M 102.78287 52.379232 C 85.051521 52.409552 67.522848 56.147701 51.323482 63.35789 L 51.321415 63.35789 L 48.43322 64.6467 L 48.579464 67.807231 C 49.089178 78.687612 50.989269 89.33727 54.154317 99.531393 L 56.928825 99.531393 C 53.68213 89.311841 51.736482 78.61601 51.224264 67.682174 L 51.159668 66.326701 L 52.397835 65.77583 C 68.259271 58.716049 85.422706 55.053988 102.78442 55.024032 L 102.78649 55.024032 L 102.78856 55.024032 L 102.79063 55.024032 C 106.39326 55.024032 109.98758 55.181503 113.56413 55.492737 C 120.3034 56.079194 126.97874 57.214568 133.52312 58.883228 C 140.23742 60.595215 146.81512 62.868569 153.18342 65.690047 L 154.42365 66.240401 L 154.36112 67.595874 C 153.8551 78.559385 151.90771 89.284954 148.65243 99.531393 L 151.4259 99.531393 C 154.59977 89.309078 156.50186 78.628492 157.0054 67.717314 L 157.14958 64.553166 L 154.25312 63.272107 C 147.74945 60.390634 141.03439 58.066914 134.17734 56.318526 C 127.49382 54.614388 120.67716 53.456682 113.7946 52.857756 C 110.14225 52.539925 106.47029 52.379232 102.79063 52.379232 L 102.78856 52.379232 L 102.78287 52.379232 z M 102.78856 58.992782 C 86.772789 59.020952 70.969271 62.336266 56.235844 68.547237 L 55.366646 68.91259 L 55.429175 69.854134 C 56.108846 80.052075 58.072893 90.013074 61.209701 99.531393 L 64.058622 99.531393 C 60.930393 90.274419 58.93224 80.582252 58.187146 70.646851 C 72.345909 64.812804 87.466442 61.664281 102.79063 61.637065 L 102.79683 61.637065 C 118.11557 61.639765 133.23449 64.763572 147.39824 70.570886 C 146.65751 80.532657 144.65725 90.250599 141.52108 99.531393 L 144.37052 99.531393 C 147.51536 89.988135 149.48109 79.999712 150.15569 69.774036 L 150.21822 68.830424 L 149.34696 68.465072 C 134.60814 62.281851 118.80619 58.995614 102.79631 58.992782 L 102.79011 58.992782 L 102.78856 58.992782 z M 62.579126 120.11102 C 71.417676 137.2471 84.145916 152.36031 100.04041 164.09593 L 102.79063 166.12733 L 105.54033 164.09593 C 121.43466 152.36024 134.16272 137.24688 143.00109 120.11102 L 140.01419 120.11102 C 131.39058 136.38978 119.15784 150.75323 103.96988 161.96738 L 102.79063 162.83812 L 101.61085 161.96738 C 86.423077 150.75356 74.190248 136.39001 65.566541 120.11102 L 62.579126 120.11102 z M 70.210702 120.11102 C 78.077229 134.32856 88.82078 146.9679 101.98189 157.12943 L 102.79063 157.7542 L 103.59936 157.12943 C 116.76063 146.96761 127.50394 134.32822 135.37003 120.11102 L 132.28702 120.11102 C 124.83987 133.17551 114.8792 144.83071 102.79063 154.34045 C 90.701901 144.83073 80.740326 133.1758 73.292684 120.11102 L 70.210702 120.11102 z " />
      <text
         xml:space="preserve"
         style="font-style:normal;font-variant:normal;font-weight:normal;font-stretch:normal;font-size:19.3624px;line-height:1.25;font-family:'Bauhaus 93';-inkscape-font-specification:'Bauhaus 93, Normal';font-variant-ligatures:normal;font-variant-caps:normal;font-variant-numeric:normal;font-variant-east-asian:normal;fill:#1a1a1a;fill-opacity:1;stroke:#000000;stroke-width:0.484061"
         x="39.041519"
         y="115.55301"
         id="text10457"><tspan
           sodipodi:role="line"
           id="tspan10455"
           style="font-style:normal;font-variant:normal;font-weight:normal;font-stretch:normal;font-size:19.3624px;font-family:'Bauhaus 93';-inkscape-font-specification:'Bauhaus 93, Normal';font-variant-ligatures:normal;font-variant-caps:normal;font-variant-numeric:normal;font-variant-east-asian:normal;fill:#1a1a1a;stroke:#000000;stroke-width:0.484061"
           x="39.041519"
           y="115.55301">TWOJ SOMSIAD</tspan></text>
      <path
         sodipodi:type="star"
         style="opacity:0.514881;fill:#ff5555;stroke:none;stroke-width:0.264583;stroke-dasharray:none"
         id="path25001"
         inkscape:flatsided="false"
         sodipodi:sides="3"
         sodipodi:cx="51.636471"
         sodipodi:cy="186.5274"
         sodipodi:r1="64.023972"
         sodipodi:r2="32.011986"
         sodipodi:arg1="0.51987101"
         sodipodi:arg2="1.5670686"
         inkscape:rounded="0"
         inkscape:randomized="0"
         d="m 107.2018,218.33248 -55.445998,0.20669 -55.4459989,0.20669 27.5440019,-48.12099 27.544,-48.12099 27.902,47.9143 z"
         inkscape:transform-center-x="-0.12692775"
         inkscape:transform-center-y="-1.2366427"
         transform="matrix(1.0636245,0,0,0.07970537,47.742659,82.096175)" />
      <path
         sodipodi:type="star"
         style="opacity:0.514881;fill:#ff5555;stroke:none;stroke-width:0.264583;stroke-dasharray:none"
         id="path25003"
         inkscape:flatsided="false"
         sodipodi:sides="3"
         sodipodi:cx="51.636471"
         sodipodi:cy="186.5274"
         sodipodi:r1="64.023972"
         sodipodi:r2="32.011986"
         sodipodi:arg1="0.51987101"
         sodipodi:arg2="1.5670686"
         inkscape:rounded="0"
         inkscape:randomized="0"
         d="m 107.2018,218.33248 -55.445998,0.20669 -55.4459989,0.20669 27.5440019,-48.12099 27.544,-48.12099 27.902,47.9143 z"
         inkscape:transform-center-x="-0.12692775"
         inkscape:transform-center-y="1.2366458"
         transform="matrix(1.0636245,0,0,-0.07970537,47.742659,137.54624)" />
      <g
         id="path25005"
         inkscape:transform-center-x="-0.12692775"
         inkscape:transform-center-y="-1.2366427"
         style="opacity:0.514881"
         transform="matrix(1.0636245,0,0,0.07970537,47.742659,82.096175)">
        <path
           style="color:#000000;fill:#00ff00;stroke-width:18.1742"
           d="M 51.397974,122.50577 23.85404,170.6258 -3.6903798,218.74583 51.755561,218.53836 107.20199,218.33089 79.299981,170.41833 Z M -3.6903798,476.94202 23.85404,525.06205 51.397974,573.18208 79.299981,525.26952 107.20199,477.35696 51.755561,477.14949 Z"
           id="path26464" />
        <path
           style="color:#000000;fill:#00ff00"
           d="m 51.330078,104.33203 -7.818359,13.66016 -27.544922,48.11914 -35.363281,61.78125 71.185546,-0.26758 71.185548,-0.26563 -35.822266,-61.51367 z m 0.136719,36.34766 19.980469,34.3125 19.980468,34.31054 -39.707031,0.14844 -39.705078,0.14844 19.724609,-34.45899 z m -70.863281,327.11718 7.820312,13.66016 27.542969,48.11914 35.363281,61.7793 35.822266,-61.51367 35.822266,-61.51368 -71.185548,-0.26562 z m 31.412109,18.29102 39.705078,0.14844 39.708984,0.14844 -19.982421,34.3125 -19.980469,34.31054 -19.726563,-34.46094 z"
           id="path26466" />
      </g>
    </g>
  </g>
</svg>
